# xmcd
#
# Track frame offsets:
#	150
#	21063
#	44113
#	68188
#	85600
#	104575
#	125950
#	146350
#	165388
#	187375
#	205163
#	227575
#
# Disc length: 3295 seconds
#
# Revision: 4
# Processed by: cddbd v1.5.2PL0 Copyright (c) Steve Scherf et al.
# Submitted via: EasyCDDAExtractor 10.0.2.1
#
DISCID=ad0cdd0c
DTITLE=孟庭葦 - 1990~1994 鑽石金選集
DYEAR=1994
DGENRE=Vocal
TTITLE0=你看你看月亮的臉
TTITLE1=冬季到台北來看雨
TTITLE2=你究竟還有幾個好妹妹
TTITLE3=其實我還有些不在乎
TTITLE4=木棉道
TTITLE5=把他換作你
TTITLE6=日以繼夜的想你
TTITLE7=去吧 我的愛
TTITLE8=白紗窗的女孩
TTITLE9=不下雨就出太陽吧
TTITLE10=我說的謊都是真的
TTITLE11=抉擇
EXTD=YEAR: 1994
EXTT0=
EXTT1=
EXTT2=
EXTT3=
EXTT4=
EXTT5=
EXTT6=
EXTT7=
EXTT8=
EXTT9=
EXTT10=
EXTT11=
PLAYORDER=
